<?xml version="1.0" standalone="no"?>
<!DOCTYPE svg PUBLIC "-//W3C//DTD SVG 20010904//EN"
 "http://www.w3.org/TR/2001/REC-SVG-20010904/DTD/svg10.dtd">
<svg version="1.0" xmlns="http://www.w3.org/2000/svg"
 width="750.000000pt" height="750.000000pt" viewBox="0 0 750.000000 750.000000"
 preserveAspectRatio="xMidYMid meet">

<g transform="translate(0.000000,750.000000) scale(0.100000,-0.100000)"
fill="#000000" stroke="none">
<path d="M2384 4341 c-44 -27 -79 -76 -101 -141 -23 -69 -25 -318 -4 -585 11
-140 11 -189 2 -222 -15 -54 -31 -55 -129 -8 -96 47 -120 51 -187 30 -144 -46
-240 -214 -306 -540 -30 -150 -38 -465 -15 -575 42 -199 170 -325 382 -376 93
-23 323 -23 417 -1 130 32 223 101 247 184 15 54 38 225 50 383 30 372 21
1438 -13 1580 -48 202 -226 342 -343 271z m136 -56 c16 -8 38 -29 51 -46 l22
-31 -44 23 c-24 13 -64 26 -89 29 l-45 6 30 16 c37 21 40 21 75 3z m10 -107
c40 -28 83 -102 106 -183 15 -52 18 -131 22 -605 5 -691 -16 -1078 -65 -1178
-62 -126 -436 -184 -657 -102 -148 56 -228 230 -212 460 16 227 100 498 188
605 36 43 115 85 161 85 20 0 50 -10 71 -25 93 -63 137 -70 185 -30 16 14 35
42 43 63 17 51 15 235 -6 474 -15 162 -16 209 -6 265 13 80 53 159 89 178 35
19 43 18 81 -7z m-386 -843 c54 -37 92 -55 115 -55 14 0 19 -5 15 -15 -10 -24
-44 -18 -124 22 -59 29 -87 37 -128 37 l-53 0 33 18 c48 25 98 23 142 -7z
m-235 -1271 c94 -43 174 -57 326 -57 92 0 162 5 205 16 85 20 89 14 7 -12
-256 -79 -542 -38 -637 91 l-24 32 35 -23 c19 -12 58 -34 88 -47z"/>
<path d="M6873 3780 c-62 -14 -139 -60 -238 -145 -55 -47 -104 -85 -110 -85
-6 0 -31 20 -55 45 -58 59 -117 79 -220 73 -68 -4 -91 -11 -180 -53 -84 -41
-103 -47 -110 -35 -6 8 -10 20 -10 26 0 23 -78 82 -129 99 -66 22 -123 14
-185 -25 -73 -46 -86 -77 -86 -195 0 -55 5 -131 11 -170 27 -187 29 -271 14
-620 -9 -219 -11 -383 -6 -438 8 -84 10 -90 47 -129 110 -113 236 -108 323 13
36 49 43 81 81 372 37 282 56 395 77 465 29 90 75 118 110 65 26 -39 22 -181
-11 -423 -15 -107 -29 -256 -32 -330 -5 -123 -4 -138 14 -166 23 -36 130 -94
172 -94 65 0 126 119 169 337 33 160 92 376 160 578 47 140 67 165 137 165
l44 0 0 -39 c0 -56 -16 -210 -51 -486 -16 -132 -31 -279 -33 -328 l-2 -87 33
-26 c81 -62 138 -65 199 -11 87 76 143 270 194 668 43 341 46 644 8 763 -18
57 -87 128 -165 169 -83 43 -128 55 -170 47z m130 -74 c35 -14 107 -80 107
-97 0 -6 -3 -9 -7 -7 -137 68 -167 80 -204 80 -47 -1 -46 4 8 23 48 18 57 18
96 1z m-1156 -78 c8 -6 18 -19 23 -29 9 -15 5 -15 -43 3 -37 14 -64 18 -96 14
-51 -7 -49 0 6 20 40 15 87 12 110 -8z m1149 -18 c34 -13 84 -55 106 -89 42
-65 45 -325 8 -621 -21 -169 -83 -467 -109 -525 -20 -44 -86 -115 -108 -115
-19 0 -17 38 19 301 26 190 32 269 32 424 1 208 -4 229 -57 269 -24 17 -43 21
-113 21 -76 0 -86 -2 -108 -25 -13 -14 -35 -54 -49 -90 -42 -107 -123 -385
-152 -520 -58 -276 -67 -312 -96 -370 -33 -66 -67 -86 -96 -57 -14 14 -13 39
11 254 42 381 35 647 -20 730 -24 38 -64 58 -112 56 -119 -4 -142 -65 -212
-552 -46 -324 -63 -401 -97 -442 -31 -36 -88 -53 -130 -39 -61 22 -68 67 -44
325 16 170 10 569 -10 794 l-13 134 32 28 c38 34 103 54 140 41 49 -16 61 -47
68 -175 9 -145 18 -155 79 -81 134 163 216 215 343 218 59 1 65 -1 91 -30 20
-22 32 -51 41 -96 13 -72 41 -128 64 -128 16 0 23 8 88 109 58 89 213 210 316
247 46 16 54 17 88 4z m-600 -31 c35 -33 30 -40 -17 -24 -53 19 -152 19 -212
1 -54 -16 -60 -13 -17 9 92 48 203 54 246 14z m474 -390 c0 -19 -4 -21 -31
-15 -17 3 -48 6 -68 6 -34 1 -35 2 -17 15 11 9 41 15 68 15 42 0 48 -3 48 -21z
m-676 -28 c3 -4 -8 -8 -23 -7 -16 1 -27 4 -24 9 6 10 41 9 47 -2z m719 -970
c17 -6 17 -8 3 -20 -19 -16 -46 -8 -46 14 0 16 14 18 43 6z m-1179 -38 c23 -8
52 -11 69 -7 44 9 25 -13 -22 -26 -44 -12 -86 -1 -107 28 -19 24 -17 35 4 27
9 -4 35 -14 56 -22z m606 -34 c0 -5 -11 -11 -25 -15 -29 -7 -55 10 -55 36 0
17 2 17 40 3 22 -9 40 -20 40 -24z"/>
<path d="M860 3596 c-207 -72 -313 -165 -426 -372 -116 -213 -165 -378 -171
-579 -6 -159 9 -243 54 -327 58 -107 216 -215 350 -240 85 -16 171 0 283 52
49 23 94 39 100 35 5 -3 10 -17 10 -30 0 -18 7 -26 27 -31 29 -8 294 23 304
34 3 4 22 68 42 142 88 327 157 821 144 1027 -6 100 -28 142 -91 172 -49 24
-87 26 -151 9 l-46 -12 -61 62 c-33 35 -71 68 -85 73 -13 5 -68 9 -121 8 -74
0 -112 -6 -162 -23z m256 -36 c15 -6 58 -37 96 -70 79 -68 104 -78 165 -62 78
21 100 15 117 -32 5 -14 3 -17 -11 -11 -40 15 -87 17 -140 5 l-55 -14 -60 63
c-33 34 -71 67 -85 72 -13 5 -66 9 -117 9 -98 0 -171 -18 -271 -66 -48 -24
-49 -24 -25 -3 34 30 152 85 220 103 66 18 129 20 166 6z m0 -100 c15 -6 58
-37 96 -70 79 -68 104 -78 165 -62 119 32 131 9 108 -214 -29 -272 -105 -662
-150 -771 -16 -39 -63 -63 -121 -63 -27 0 -35 3 -31 14 25 64 36 239 16 251
-17 11 -48 -15 -85 -70 -102 -154 -305 -260 -461 -240 -70 9 -163 56 -208 107
-51 56 -96 155 -102 226 -16 179 172 596 335 742 123 111 343 186 438 150z
m-570 -1242 c129 -60 248 -60 382 1 55 26 63 27 42 10 -71 -61 -222 -106 -317
-94 -97 12 -211 86 -253 164 -8 16 1 13 37 -15 26 -20 76 -50 109 -66z m774
-4 c0 -12 -73 -34 -115 -34 -47 0 -62 16 -22 25 54 12 137 18 137 9z"/>
<path d="M3415 3596 c-145 -47 -259 -124 -336 -226 -61 -81 -181 -316 -214
-422 -100 -316 -64 -598 93 -738 175 -156 361 -177 580 -66 55 28 72 27 72 -3
0 -45 43 -50 224 -22 l110 16 18 60 c95 318 173 825 166 1081 -3 113 -5 123
-30 156 -48 63 -118 79 -231 52 -24 -6 -34 1 -86 54 -32 34 -70 66 -85 72 -50
19 -204 11 -281 -14z m259 -40 c19 -8 61 -39 95 -70 33 -30 72 -58 86 -62 14
-3 55 0 91 7 65 13 67 13 85 -10 26 -31 24 -44 -3 -34 -29 10 -113 9 -156 -1
-30 -8 -35 -5 -90 52 -32 34 -71 66 -86 72 -15 5 -67 10 -116 10 -94 0 -182
-21 -275 -67 -44 -21 -47 -22 -25 -3 14 11 57 36 95 55 122 61 232 79 299 51z
m0 -100 c19 -8 61 -39 95 -70 33 -30 72 -58 86 -62 14 -3 55 0 91 7 65 13 67
13 85 -10 23 -28 24 -65 4 -236 -33 -282 -110 -661 -153 -751 -17 -36 -56 -54
-118 -54 l-30 0 18 72 c11 45 14 75 9 82 -6 7 -6 27 -1 51 7 30 6 43 -4 53
-20 20 -50 1 -81 -53 -15 -24 -54 -70 -88 -102 -257 -240 -585 -184 -677 115
-26 83 -25 109 4 226 43 168 144 379 244 510 122 159 390 275 516 222z m-572
-1241 c121 -55 233 -56 369 -1 69 27 56 11 -24 -30 -117 -60 -240 -67 -343
-20 -53 24 -131 93 -154 136 -9 17 0 13 42 -19 29 -22 79 -52 110 -66z m768
-5 c0 -13 -66 -30 -117 -30 -45 0 -59 16 -20 25 66 14 137 17 137 5z"/>
<path d="M4785 3596 c-145 -47 -259 -124 -336 -226 -61 -81 -181 -316 -214
-422 -100 -316 -64 -598 93 -738 175 -156 361 -177 580 -66 55 28 72 27 72 -3
0 -45 43 -50 224 -22 l110 16 18 60 c95 318 173 825 166 1081 -3 113 -5 123
-30 156 -48 63 -118 79 -231 52 -24 -6 -34 1 -86 54 -32 34 -70 66 -85 72 -50
19 -204 11 -281 -14z m259 -40 c19 -8 61 -39 95 -70 33 -30 72 -58 86 -62 14
-3 55 0 91 7 65 13 67 13 85 -10 26 -31 24 -44 -3 -34 -29 10 -113 9 -156 -1
-30 -8 -35 -5 -90 52 -32 34 -71 66 -86 72 -15 5 -67 10 -116 10 -94 0 -182
-21 -275 -67 -44 -21 -47 -22 -25 -3 14 11 57 36 95 55 122 61 232 79 299 51z
m0 -100 c19 -8 61 -39 95 -70 33 -30 72 -58 86 -62 14 -3 55 0 91 7 65 13 67
13 85 -10 23 -28 24 -65 4 -236 -33 -282 -110 -661 -153 -751 -17 -36 -56 -54
-118 -54 l-30 0 18 72 c11 45 14 75 9 82 -6 7 -6 27 -1 51 7 30 6 43 -4 53
-20 20 -50 1 -81 -53 -15 -24 -54 -70 -88 -102 -257 -240 -585 -184 -677 115
-26 83 -25 109 4 226 43 168 144 379 244 510 122 159 390 275 516 222z m-572
-1241 c121 -55 233 -56 369 -1 69 27 56 11 -24 -30 -117 -60 -240 -67 -343
-20 -53 24 -131 93 -154 136 -9 17 0 13 42 -19 29 -22 79 -52 110 -66z m768
-5 c0 -13 -66 -30 -117 -30 -45 0 -59 16 -20 25 66 14 137 17 137 5z"/>
</g>
</svg>
